<?xml version="1.0" encoding="UTF-8"?>
<svg id="Ebene_1" data-name="Ebene 1" xmlns="http://www.w3.org/2000/svg" viewBox="0 0 494.11 783.92">
  <defs>
    <style>
      .cls-1 {
        fill: #2563eb;
      }

      .cls-1, .cls-2 {
        stroke-width: 0px;
      }

      .cls-3 {
        fill: none;
        stroke: #000;
        stroke-miterlimit: 10;
      }

      .cls-2 {
        fill: #fff;
      }
    </style>
  </defs>
  <line class="cls-3" x1="235.49" y1="431.04" x2="232.83" y2="431.04"/>
  <polygon id="logo" class="cls-1" points="494.11 284.26 130.75 647.62 209.46 353.89 .18 353.89 354.07 0 277.9 284.26 494.11 284.26"/>
  <g id="claim">
    <path class="cls-2" d="M25.99,687.16h32.34l-9.26,34.14h29.58l9.26-34.14h32.34l-25.99,96.75h-32.34l9.26-34.69h-29.58l-9.26,34.69H0l25.99-96.75Z"/>
    <path class="cls-2" d="M140.16,747.01l-18.94-59.85h34l7.88,32.34,25.16-32.34h38.29l-55.01,63.86-8.85,32.9h-32.34l9.81-36.9Z"/>
    <path class="cls-2" d="M227.93,687.16h32.48c8.94,0,16.26.88,21.98,2.63,5.71,1.75,10.37,4.42,13.96,8.02,2.58,2.58,4.49,5.51,5.74,8.78,1.24,3.27,1.87,6.84,1.87,10.71,0,6.08-1.11,11.59-3.32,16.52-2.21,4.93-5.42,9.17-9.61,12.72-4.19,3.55-9.33,6.29-15.41,8.22-6.08,1.94-12.95,2.9-20.6,2.9h-13.68l-7.05,26.26h-32.34l25.99-96.75ZM253.5,734.57c6.17,0,10.71-1.22,13.61-3.66,2.9-2.44,4.35-5.51,4.35-9.19,0-2.21-.78-4.1-2.35-5.67-1.11-1.11-2.54-1.89-4.29-2.35-1.75-.46-3.55-.69-5.39-.69h-6.08l-5.67,21.56h5.81Z"/>
    <path class="cls-2" d="M319.98,687.16h82.52l-7.19,26.54h-50.73l-2.63,9.81h47.27l-6.22,23.36h-47.27l-2.9,10.5h51.42l-7.05,26.54h-83.21l25.99-96.75Z"/>
    <path class="cls-2" d="M413,687.16h37.73c8.94,0,16.31.92,22.12,2.76,5.81,1.84,10.32,4.38,13.55,7.6,2.67,2.67,4.61,5.74,5.81,9.19,1.2,3.46,1.8,7.12,1.8,10.99s-.51,7.39-1.52,10.85c-1.02,3.46-2.6,6.66-4.77,9.61-2.17,2.95-4.96,5.58-8.36,7.88-3.41,2.3-7.51,4.19-12.3,5.67l13.41,32.21h-34.83l-10.78-27.64h-8.02l-7.46,27.64h-32.34l25.99-96.75ZM444.65,733.19c5.44,0,9.54-1.08,12.3-3.25,2.76-2.16,4.15-4.77,4.15-7.81,0-2.03-.69-3.73-2.07-5.11-1.84-1.84-5.02-2.76-9.54-2.76h-11.47l-5.11,18.94h11.75Z"/>
  </g>
</svg>